<?xml version="1.0" encoding="UTF-8" standalone="no"?>
<!DOCTYPE svg PUBLIC "-//W3C//DTD SVG 1.1//EN" "http://www.w3.org/Graphics/SVG/1.1/DTD/svg11.dtd">
<svg version="1.1" xmlns="http://www.w3.org/2000/svg" xmlns:xlink="http://www.w3.org/1999/xlink" preserveAspectRatio="xMidYMid meet" viewBox="0 0 100 100" width="100" height="100"><defs><path d="M5.8 8.54L28.98 8.54L28.98 28.05L5.8 28.05L5.8 8.54Z" id="d8f8sVCal"></path><path d="M34.16 8.54L95.13 8.54L95.13 28.05L34.16 28.05L34.16 8.54Z" id="f88UiptX0H"></path><path d="M5.8 40.24L28.98 40.24L28.98 59.76L5.8 59.76L5.8 40.24Z" id="c1agpjf5dS"></path><path d="M5.8 71.65L28.98 71.65L28.98 91.16L5.8 91.16L5.8 71.65Z" id="aUDIG3m7y"></path><path d="M34.16 40.24L95.13 40.24L95.13 59.76L34.16 59.76L34.16 40.24Z" id="a2lC2n6dfb"></path><path d="M34.16 71.65L95.13 71.65L95.13 91.16L34.16 91.16L34.16 71.65Z" id="fjMfheJz"></path></defs><g><g><g><use xlink:href="#d8f8sVCal" opacity="1" fill="#0a1d37" fill-opacity="1"></use></g><g><use xlink:href="#f88UiptX0H" opacity="1" fill="#0a1d37" fill-opacity="1"></use></g><g><use xlink:href="#c1agpjf5dS" opacity="1" fill="#0a1d37" fill-opacity="1"></use></g><g><use xlink:href="#aUDIG3m7y" opacity="1" fill="#0a1d37" fill-opacity="1"></use></g><g><use xlink:href="#a2lC2n6dfb" opacity="1" fill="#0a1d37" fill-opacity="1"></use></g><g><use xlink:href="#fjMfheJz" opacity="1" fill="#0a1d37" fill-opacity="1"></use></g></g></g></svg>