<?xml version="1.0" ?><svg style="enable-background:new 0 0 48 48;" version="1.1" viewBox="0 0 48 48" xml:space="preserve" xmlns="http://www.w3.org/2000/svg" xmlns:xlink="http://www.w3.org/1999/xlink"><style type="text/css">
	.st0{display:none;}
	.st1{fill:none;stroke:#303030;stroke-width:0.7;stroke-linecap:round;stroke-linejoin:round;stroke-miterlimit:10;}
	.st2{fill:#303030;}
</style><g class="st0" id="Padding__x26__Artboard"/><g id="Icons"><g><path class="st1" d="M23.49332,37.475l0.13168-8.58l-3.56-0.02l0.1-4.15h3.5v-3c0-0.42054,0.05134-0.84992,0.12314-1.26374    c0.0642-0.37007,0.15594-0.73596,0.28386-1.08931c0.11527-0.3184,0.26019-0.62645,0.43889-0.91429    c0.16738-0.2696,0.36431-0.52076,0.58845-0.7455c0.22091-0.22151,0.46759-0.41668,0.73252-0.58293    c0.27443-0.17221,0.56774-0.3133,0.87112-0.42659c0.49915-0.1864,1.02825-0.30563,1.55798-0.3606    c0.5479-0.05695,1.10137-0.02774,1.65096-0.01607c0.22707,0.00482,0.45415,0.00967,0.68125,0.01258    c0.42203,0.00542,0.84406,0.01043,1.26609,0.01502c0.01623,0.00018,0.03247,0.00035,0.0487,0.00053L31.805,20.195    c0,0-0.49-0.02-2.21,0c-1.69,0.02-1.71,1.28-1.71,1.34l-0.02,3.19l3.94,0.07l-0.57,4.08h-3.35l-0.02255,8.6H34.955    c1.39,0,2.52-1.13,2.52-2.52v-21.91c0-1.39-1.13-2.52-2.52-2.52h-21.91c-1.39,0-2.52,1.13-2.52,2.52v21.91    c0,1.39,1.13,2.52,2.52,2.52H23.49332"/><line class="st1" x1="13.2391" x2="13.2391" y1="15.51004" y2="25.73486"/><line class="st1" x1="13.2391" x2="13.2391" y1="28.29091" y2="29.82454"/></g></g></svg>